<?xml version="1.0" encoding="iso-8859-1"?>
<!-- Generator: Adobe Illustrator 19.0.0, SVG Export Plug-In . SVG Version: 6.00 Build 0)  -->
<svg version="1.1" id="Capa_1" xmlns="http://www.w3.org/2000/svg" xmlns:xlink="http://www.w3.org/1999/xlink" x="0px" y="0px"
	 viewBox="0 0 464 464" style="enable-background:new 0 0 464 464;" xml:space="preserve">
<g>
	<path style="fill:#E9686A;" d="M264,384h32v80h-32V384z"/>
	<path style="fill:#E9686A;" d="M168,304h32v160h-32V304z"/>
</g>
<g>
	<path style="fill:#AABECE;" d="M216,264h-64c-4.418,0-8,3.582-8,8v16c0,13.255,10.745,24,24,24h32c13.255,0,24-10.745,24-24v-16
		C224,267.582,220.418,264,216,264z"/>
	<path style="fill:#AABECE;" d="M152,280c-4.418,0-8-3.582-8-8v-48c0-4.418,3.582-8,8-8s8,3.582,8,8v48
		C160,276.418,156.418,280,152,280z"/>
	<path style="fill:#AABECE;" d="M184,280c-4.418,0-8-3.582-8-8v-48c0-4.418,3.582-8,8-8s8,3.582,8,8v48
		C192,276.418,188.418,280,184,280z"/>
	<path style="fill:#AABECE;" d="M216,280c-4.418,0-8-3.582-8-8v-48c0-4.418,3.582-8,8-8s8,3.582,8,8v48
		C224,276.418,220.418,280,216,280z"/>
	<path style="fill:#AABECE;" d="M296,216c-22.08,0.026-39.974,17.92-40,40v128c0,4.418,3.582,8,8,8h32c4.418,0,8-3.582,8-8V224
		C304,219.582,300.418,216,296,216z"/>
</g>
<g>
	<path style="fill:#FDBD40;" d="M232,0l13.288,40.904h43.008l-34.792,25.272l13.288,40.904L232,81.8l-34.792,25.28l13.288-40.904
		l-34.792-25.272h43.008L232,0z"/>
	<path style="fill:#FDBD40;" d="M414.152,59.68L394.632,98l30.408,30.408l-42.48-6.728L363.04,160l-6.728-42.48l-42.48-6.728
		l38.32-19.52l-6.728-42.48l30.416,30.416L414.152,59.68z"/>
	<path style="fill:#FDBD40;" d="M49.848,59.68L88.16,79.208l30.416-30.416l-6.728,42.48l38.32,19.52l-42.48,6.728L100.96,160
		l-19.52-38.32l-42.48,6.728L69.368,98L49.848,59.68z"/>
</g>
<g>
	<path style="fill:#E9686A;" d="M232,200c-4.418,0-8-3.582-8-8v-64c0-4.418,3.582-8,8-8s8,3.582,8,8v64
		C240,196.418,236.418,200,232,200z"/>
	<path style="fill:#E9686A;" d="M280,200c-4.418-0.001-7.999-3.583-7.998-8.002c0-2.121,0.843-4.155,2.342-5.654l40-40
		c3.178-3.07,8.242-2.982,11.312,0.196c2.994,3.1,2.994,8.015,0,11.116l-40,40C284.156,199.156,282.122,200,280,200L280,200z"/>
	<path style="fill:#E9686A;" d="M184,200c-2.122,0-4.156-0.844-5.656-2.344l-48-48c-3.069-3.178-2.981-8.243,0.197-11.312
		c3.1-2.994,8.015-2.994,11.115,0l48,48c3.124,3.125,3.123,8.19-0.002,11.314C188.154,199.157,186.121,200,184,200L184,200z"/>
</g>
<g>
</g>
<g>
</g>
<g>
</g>
<g>
</g>
<g>
</g>
<g>
</g>
<g>
</g>
<g>
</g>
<g>
</g>
<g>
</g>
<g>
</g>
<g>
</g>
<g>
</g>
<g>
</g>
<g>
</g>
</svg>
